<?xml version="1.0" encoding="utf-8"?>
<!-- Generator: Adobe Illustrator 22.0.1, SVG Export Plug-In . SVG Version: 6.00 Build 0)  -->
<svg version="1.1" id="Layer_1" xmlns="http://www.w3.org/2000/svg" xmlns:xlink="http://www.w3.org/1999/xlink" x="0px" y="0px"
	 viewBox="0 0 602.4 121.8" style="enable-background:new 0 0 602.4 121.8;" xml:space="preserve">
<style type="text/css">
	.st0{fill:url(#SVGID_1_);}
	.st1{fill:url(#SVGID_2_);}
	.st2{fill:#FF671D;}
</style>
<g>
	
		<linearGradient id="SVGID_1_" gradientUnits="userSpaceOnUse" x1="4960.4604" y1="26.8908" x2="4899.9888" y2="-33.5813" gradientTransform="matrix(-1 0 0 1 4994.9258 102)">
		<stop  offset="0.3" style="stop-color:#F26529"/>
		<stop  offset="0.4405" style="stop-color:#F26A28"/>
		<stop  offset="0.6244" style="stop-color:#F47726"/>
		<stop  offset="0.8313" style="stop-color:#F68A22"/>
		<stop  offset="1" style="stop-color:#F99D1C"/>
	</linearGradient>
	<path class="st0" d="M122.1,96.1c0,0,0.4,0,0.7,0.4s0,0.8,0,0.8s-8.7,16.6-15.9,16.6H22.3c-7.2,0-15.9-16.6-15.9-16.6
		s-0.2-0.4,0-0.8c0.3-0.4,0.7-0.4,0.7-0.4h33.2c6.7,0,12.1,5.4,12.1,12.1c0-6.7,5.4-12.1,12.1-12.1H122.1z"/>
	
		<linearGradient id="SVGID_2_" gradientUnits="userSpaceOnUse" x1="21.7272" y1="4.3433" x2="107.6728" y2="-81.6022" gradientTransform="matrix(1 0 0 1 0 102)">
		<stop  offset="0.1" style="stop-color:#006880"/>
		<stop  offset="0.3023" style="stop-color:#006C84"/>
		<stop  offset="0.567" style="stop-color:#007893"/>
		<stop  offset="0.8651" style="stop-color:#008DAD"/>
		<stop  offset="1" style="stop-color:#009BBF"/>
	</linearGradient>
	<path class="st1" d="M125.3,88h-23.7c-0.2,0-0.4-0.1-0.6-0.2s-0.2-0.3-0.2-0.6c0-0.2,0.1-0.4,0.1-0.4c2.7-5.4,4.2-11.5,4.2-17.9
		c0-22.3-18.1-40.4-40.4-40.4S24.3,46.6,24.3,68.9c0,6.4,1.5,12.5,4.2,17.9c0,0,0.1,0.2,0.1,0.4s-0.1,0.4-0.3,0.6
		C28.1,88,27.9,88,27.8,88H4.1c-0.3,0-0.7-0.1-1.1-0.4s-0.5-0.8-0.5-0.8C0.9,81.1,0,75.1,0,68.9C0,33.2,29,4.2,64.7,4.2
		s64.7,29,64.7,64.7c0,6.2-0.9,12.2-2.5,17.9c0,0-0.1,0.5-0.5,0.8S125.6,88,125.3,88z"/>
</g>
<g>
	<polygon class="st2" points="147.4,36.2 155.5,36.7 155.5,91 147.4,91.5 147.4,96 169.8,96 169.8,91.5 161.7,91 161.7,36.7 
		169.8,36.2 169.8,31.6 147.4,31.6 	"/>
	<path class="st2" d="M218.3,64.8c0-10.7-5-15.6-15.1-15.6c-5.9,0-11.1,2-14.4,5.8c-0.1-3.2-1.8-4.9-5.1-4.9c-4.1,0-6.9,0.7-6.9,0.7
		l-0.4,4l6.3,0.5V91l-6.9,0.6v4.5h19.9v-4.5l-6.9-0.6V60.1c1.9-3.6,6.3-6.3,13.5-6.3c6.3,0,9.9,3.5,9.9,11V92c0,2.9,1.7,4.6,5,4.6
		c4.4,0,8-0.8,8-0.8v-4.2l-7-0.4L218.3,64.8L218.3,64.8z"/>
	<path class="st2" d="M245.9,92.1c-4.8,0-7.4-2.7-7.4-7.3V55.2h12.1V50h-12.1V39.1l-4.7,0.4L232.4,50l-6.3,0.7l-0.1,4.4h6.3v29.1
		c0,8,4.5,12.5,12.8,12.5c3.2,0,5.9-0.6,8-1.3l-1.2-4.2C249.9,91.8,247.8,92.1,245.9,92.1z"/>
	<path class="st2" d="M275.9,49.1c-12.6,0-19.5,7.9-19.5,23.7c0,17,7,24.1,20.1,24.1c9.3,0,14.7-3.7,15.4-4l-1.7-3.8
		c0,0-5.2,3.1-13.4,3.1c-8.6,0-13.7-4.8-14.3-17.4h30.8v-2.3C293.4,55.2,286.7,49.1,275.9,49.1z M262.6,70.7
		c0.6-12.2,5.6-16.8,13.5-16.8c6.6,0,11.4,3.8,11.6,16.8H262.6z"/>
	<path class="st2" d="M311.8,57.4v-2.3c0-3.3-1.7-5.1-4.7-5.1c-4.1,0-6.9,0.7-6.9,0.7l-0.4,4l6.3,0.5V91l-6.9,0.6v4.5h20.6v-4.5
		l-7.6-0.6V64c1.7-5.4,6.4-9,14.1-9h2.9v-5.8h-2.4C320.6,49.1,315,51.9,311.8,57.4z"/>
	<polygon class="st2" points="387.6,31.6 365.5,31.6 365.5,36.2 373.8,36.7 356.3,88.5 355.8,88.5 338.5,36.7 346.3,36.2 
		346.3,31.6 323.9,31.6 323.9,36.2 331.6,36.7 352.4,96 359,96 379.6,36.7 387.6,36.2 	"/>
	<path class="st2" d="M415.3,64.8c0-10.5-5.2-15.6-15.8-15.6c-7.3,0-13.1,1.9-15.3,3.3c-1.6,1.1-2,2.4-2,4.2s0.4,5.3,0.5,5.8h4.2
		l0.6-6.4c2.1-1,6.5-2.1,11.5-2.1c6.8,0,10.4,3.5,10.4,10.9v6c-2.5-0.6-6.9-1.2-12.3-1.2c-11.5,0-17,5.4-17,13.8
		c0,7.7,5.2,13.6,14.1,13.6c6.9,0,12.2-3,15.3-7.6v1.7c0,3.3,1.7,5.2,5,5.2c4.2,0,7.5-0.8,7.5-0.8v-4l-6.6-0.5V64.8H415.3z
		 M409.5,82.6c-1.7,4.9-6.4,9.7-14.4,9.7c-5.7,0-8.8-3.9-8.8-9.2c0-5.6,3.6-9.3,11.7-9.3c5.5,0,9.5,0.7,11.6,1.1v7.7
		C409.6,82.6,409.5,82.6,409.5,82.6z"/>
	<path class="st2" d="M439.4,57.4v-2.3c0-3.3-1.7-5.1-4.7-5.1c-4.1,0-6.9,0.7-6.9,0.7l-0.4,4l6.3,0.5V91l-6.9,0.6v4.5h20.6v-4.5
		l-7.6-0.6V64c1.7-5.4,6.4-9,14.1-9h2.9v-5.8h-2.4C448.2,49.1,442.6,51.9,439.4,57.4z"/>
	<path class="st2" d="M478.6,69.9c-5.1-1.2-11.6-1.8-11.6-7.8c0-4.7,3-8.3,10.2-8.3c4.2,0,8.3,1,10.4,1.9l0.6,6.6h4.3
		c0.2-0.5,0.5-4.3,0.5-6.3c0-1.7-0.5-2.9-2.1-4c-2.1-1.3-7.5-2.9-13.7-2.9c-10.5,0-16,5.2-16,13.1c0,9.7,9,11.2,15.3,12.6
		c6.5,1.3,13,2.5,13,8.6c0,5.5-3.9,8.8-11.7,8.8c-5.5,0-10.4-1.7-11.8-2.4l-0.5-6.5h-4.2c-0.2,0.6-0.6,4.4-0.6,6.3
		c0,1.8,0.5,3.2,2.3,4.2c2,1.2,7.2,3.1,14.8,3.1c11.5,0,17.4-5.4,17.4-13.7C495.2,73.5,486.5,71.7,478.6,69.9z"/>
	<path class="st2" d="M509.2,37.8c2.4,0,4.4-1.9,4.4-4.4c0-2.4-2-4.4-4.4-4.4c-2.5,0-4.4,2-4.4,4.4
		C504.7,35.9,506.7,37.8,509.2,37.8z"/>
	<polygon class="st2" points="513.4,50 502.3,50 502,54.8 507.3,55.3 507.3,90.8 501.2,91.3 501.2,96 519.4,96 519.4,91.3 
		513.4,90.8 	"/>
	<path class="st2" d="M541.8,92.1c-4.8,0-7.4-2.7-7.4-7.3V55.2h12.1V50h-12.1V39.1l-4.7,0.4L528.3,50l-6.3,0.7l-0.1,4.4h6.3v29.1
		c0,8,4.5,12.5,12.8,12.5c3.2,0,5.9-0.6,8-1.3l-1.2-4.2C545.7,91.8,543.6,92.1,541.8,92.1z"/>
	<path class="st2" d="M583,50v4.5l7.1,0.6L578,88.5c0,0-0.6,1.6-0.8,2.7h-0.4c-0.2-1.1-0.7-2.7-0.7-2.7l-12.2-33.4l7.2-0.6V50h-20
		v4.5l6.4,0.5l16.4,43.6l0,0l-4.1,10.8c-0.9,2.6-3.5,3.9-6.6,3.9c-1.4,0-2.9-0.2-4.3-0.5l-1.1,4.2c1.8,0.6,4.1,0.8,5.5,0.8
		c6.5,0,9.8-3,11.8-8.1l5.1-13.2L595.7,55l6.7-0.6V50H583z"/>
</g>
</svg>
